<svg xmlns="http://www.w3.org/2000/svg" viewBox="0 0 197.63 37.17"><defs><style>.cls-1{fill:#b0d4bf}</style></defs><g id="Слой_2" data-name="Слой 2"><g id="Layer_1" data-name="Layer 1"><path class="cls-1" d="M8.76 36.94a39.89 39.89 0 002.81-2.86 12.21 12.21 0 001.72-3.49c.48-1.21 1.45-2 2.05-3.09a8.21 8.21 0 01.84-1.5 9.07 9.07 0 011.46-1.16c1-.73 1.46-1.93 2.44-2.65a5.29 5.29 0 011.75-.65 3.87 3.87 0 001.92-1.28c.57-.69 1-1.61 1.92-1.94l-.87.23c.77-.14 1.3.39 1.83.88a15 15 0 012.16 2.35c.31.44.49 1.23.89 1.56a2.28 2.28 0 001.72.22 4.85 4.85 0 001.64-.7 10.74 10.74 0 012.13-.55c1.13-.38 1.55-1.72 2.48-2.44a10.28 10.28 0 002-1.71c.57-.74.82-1.64 1.34-2.4a9.21 9.21 0 012.26-1.9 20.68 20.68 0 002-2.15c.82-.81 1.86-.77 2.87-1.15a6.48 6.48 0 002.12-1.71 17.86 17.86 0 012.94-2.69c.5-.32.57-.46 1.16-.29a2 2 0 011.31 1.4 17.58 17.58 0 00.45 2.61c.38.85 1.08 1.5 1.48 2.34a13.32 13.32 0 001 2.46c.47.6 1.24.81 1.75 1.37a8.28 8.28 0 011.19 2.33c.49 1.11 1 2.2 1.5 3.3a31.71 31.71 0 011.23 3.1 4 4 0 001.77 2 5.49 5.49 0 011.71 1.57c.41.84-.16 1.48.89 2A2.9 2.9 0 0170.14 32c.3.61.69 1.5 1.38 1.76a2.64 2.64 0 001.88-.39c1.37-.78 2.08-2.25 3.53-2.88A9.31 9.31 0 0079.58 29a2.91 2.91 0 00.74-2.09l-.87.24a28 28 0 003.55-.56c1.45-.4 2.27-1.63 3.64-2.14l-.85.23c2-.44 3.17 1.7 4.42 2.87a8.87 8.87 0 004.74 2.38 4.56 4.56 0 00.87-.23c0-.43 0-.75.45-.95l-.32.09.22-.06-.56.14a17 17 0 003-.54c1.68-.61 2.18-2.66 3.94-3.28l-.65.18c1.9-.5 2.29 1.39 3.1 2.66s1.7 1.19 3 .8c2.18-.66 3.31-2.69 5.34-3.59a17.22 17.22 0 003.36-1.59c1-.73 1.69-1.81 2.93-2.16l-.81.22c1.22-.18 2.42.21 3.64-.08a5.74 5.74 0 001.45-.48 32.64 32.64 0 003.78-3 16.31 16.31 0 012-1.24c.74-.4 1.38-1 2.15-1.32l-.44.12.31-.08-.44.11c1.17 0 2 .93 2.76 1.67a26.25 26.25 0 002.91 2c1.6 1.12 2.85 3.66 5.1 3.46a9.79 9.79 0 003-1.09c1.11-.5 2.33-.67 3.43-1.13l-.87.24c.68.15 1.06.94 1.37 1.51a23.2 23.2 0 001.38 2.49c.76 1.08 1.46 2.23 2.25 3.27a1 1 0 001.44.39c.91-.35 1-1.44 1.9-1.83l-.87.23a16.89 16.89 0 003-.32c.56-.21.64-.41.86-.91a3.3 3.3 0 012-2.05l-.66.17a11.75 11.75 0 002.56-.45c1.26-.49 1.2-2.1 2.41-2.77l-.74.2c.8-.2.81 0 1.23.41s1.08.87 1.59 1.34a5.43 5.43 0 011.19 1.63 2.91 2.91 0 001 1.35c.27.16.5.15.73.34s.31.48.49.68a1.6 1.6 0 00.89.61 3.14 3.14 0 001.12-.34L172 27c.46-.11.93-.21 1.37-.36.84-.28 1.52-.86 2.35-1.16l-.85.23a3.42 3.42 0 011.31-.06 4.93 4.93 0 00.87-.23c-.05-1 .56-1.46 1.35-1.88a7.19 7.19 0 001.19-.56c.34-.28.56-.68.9-1l-.87.23c.66.68 1.22 1.78 2.15 2.13s1.51 0 1.94 1a5.46 5.46 0 001.56 1.95 11 11 0 011.86 2.32 7.7 7.7 0 003.72 3 8 8 0 013.89 3.91s.85-.27.87-.24a8 8 0 00-3.89-3.9 7.81 7.81 0 01-3.72-3 11 11 0 00-1.86-2.33 5.45 5.45 0 01-1.56-1.94c-.44-.95-1.12-.64-1.95-1s-1.47-1.45-2.14-2.13a3.31 3.31 0 00-.87.23c-.34.29-.56.7-.9 1a8.14 8.14 0 01-1.19.57c-.79.41-1.4.92-1.35 1.87l.87-.23c-1.8-.21-2.92.87-4.53 1.45l.65-.18a8.34 8.34 0 00-1.55.45l.87-.23c-.5.08-1-.79-1.22-1.08-.46-.49-1.06-.56-1.48-1.19a16.72 16.72 0 00-1.06-1.83 23.14 23.14 0 00-2.1-1.85c-.4-.37-.4-.53-1.12-.44a3.88 3.88 0 00-.89.23c-1.41.52-1.28 2.23-2.54 2.81l.81-.22a22.56 22.56 0 00-2.93.55 3.28 3.28 0 00-1.66 1.64c-.31.63-.3 1-1 1.28l.85-.23c-1 .22-1.9 0-2.85.28s-1 1.37-1.85 1.82l.86-.23c-.71.08-1.34-1.39-1.65-1.89-.71-1.13-1.62-2.12-2.23-3.31-.37-.73-.93-2.6-2-2.62a3.58 3.58 0 00-1.14.39l.86-.23a14.81 14.81 0 00-1.89.43c-1.35.38-2.53 1.13-3.85 1.54l.85-.22c-2.47.42-3.7-2.17-5.44-3.4a27.66 27.66 0 01-2.91-2c-.76-.71-1.63-1.76-2.78-1.67s-2.23 1.06-3.3 1.64a17.85 17.85 0 00-3.29 2.24 11 11 0 01-3.15 2.24l.85-.23c-1.34.33-2.68-.16-4 .18a6.05 6.05 0 00-2.69 1.67c-1.34 1.23-3 1.64-4.58 2.44-1.76.89-2.76 2.62-4.68 3.32l.55-.16-.35.1.32-.08c-1.73.26-2.18-1.79-2.93-2.92s-1.83-1-3-.58a4.07 4.07 0 00-1.9 1.25c-.67.76-1.16 1.79-2.21 2s-2.67 0-2.76 1.41l.87-.23a8.73 8.73 0 01-4.49-2.15c-1.11-1-2.28-3-3.89-3.19a4.42 4.42 0 00-1.85.39c-.88.34-1.39 1.12-2.19 1.58a8.36 8.36 0 01-3.07.56 4.87 4.87 0 00-.87.24 2.86 2.86 0 01-.74 2.08A9.61 9.61 0 0176 30.73c-1.49.67-2.2 2.37-3.75 3l.86-.23c-1 .21-1.56-1-1.92-1.67a7.66 7.66 0 00-.54-1.07c-.43-.6-1.1-.51-1.56-1s-.1-1-.31-1.58a2.85 2.85 0 00-.88-1c-.92-.8-2.12-1.31-2.6-2.49-.56-1.4-1.06-2.79-1.69-4.17a34 34 0 00-2-4.38c-.5-.76-1.36-1-1.94-1.61-.86-1-1-2.47-1.72-3.55a6.18 6.18 0 01-1.23-3.3 2.17 2.17 0 00-1.61-2.14 4.49 4.49 0 00-2.51.67 23.39 23.39 0 00-3.85 3.53 3.45 3.45 0 01-1.69 1c-.41.1-.83.19-1.23.32-1.37.45-1.92 1.69-2.93 2.59-1.26 1.12-2.47 1.66-3.25 3.22a7.55 7.55 0 01-2.56 3 6.25 6.25 0 00-1.54 1.58c-.28.4-.51.82-1 1l.85-.23c-.65.14-1.29.16-1.94.35a17.43 17.43 0 00-2.05 1l.86-.23a1.79 1.79 0 01-1.9-.53 22.09 22.09 0 00-1.47-2.24c-.81-.91-2-2.48-3.33-2.22a2.89 2.89 0 00-1.81 1.05c-.93 1.1-1.45 1.95-2.91 2.39a5.07 5.07 0 00-2.91 2.11 12.75 12.75 0 01-2.13 1.89 5.7 5.7 0 00-1.31 2c-.48.89-1.29 1.51-1.75 2.41s-.6 1.63-.94 2.43c-.82 1.86-2.47 3.19-3.89 4.59.19-.18.69 0 .87-.23z"/><path class="cls-1" d="M197.63 15a8 8 0 00-3.55.94 36.1 36.1 0 01-3.72 1.76c-.87.28-1.76.46-2.63.76a7 7 0 00-1.22.54c-.74.43-1.64 1.45-2.56 1.32s-1.68-1.41-2.27-2.11c-.82-1-1.24-2.19-2.05-3.17a3.59 3.59 0 01-1.1-2.85c.08-1.31-.6-1.76-1.64-2.47a26.92 26.92 0 01-2.36-2.29c-.77-.67-1.77-.65-2.7-1-2.33-.76-2.41-2.68-3.33-4.61C168 .81 167-.43 165.86.28s-1.85 2.09-2.59 3c-1.11 1.36-2.32 3.29-4 3.92l.79-.28a1.85 1.85 0 01-1.84-.61 3.52 3.52 0 00-.85.31 12.46 12.46 0 00-3 3.62c-.8 1.65-1 3.06-2.63 4.2a11.39 11.39 0 01-2.53.84c-1.18.48-2 1.54-3 2.14l.85-.3a2.57 2.57 0 01-1.23.09c-.29-.11-.19-.21-.38-.36s-.27-.34-.76-.22a4.24 4.24 0 00-1.59.79c-.62.49-1.07 1.17-1.72 1.62a13.85 13.85 0 00-1.94 1.37 8.73 8.73 0 01-2.12 1.59c-.73.4-1.22 1-1.92 1.43l.85-.31a11.68 11.68 0 00-1.86.43c-1 .4-1.17 1.14-1.58 2a11.93 11.93 0 01-1 1.46 11.23 11.23 0 00-.7 1.64c-.43 1-1.89 1.78-2.84 2.24l.85-.31c-1.07.2-1.74-.85-2.36-1.54a4.73 4.73 0 00-2.87-1.41 7.29 7.29 0 01-1.72-.4 10.78 10.78 0 00-1.72-.72 13.73 13.73 0 01-1.91-.38 11.44 11.44 0 01-1.45-.88c-1-.59-1.19-1.51-2-2.3-.48-.47-.8-.71-1.44-.55a3.18 3.18 0 00-1 .52 29.81 29.81 0 01-3.08 1.84l.85-.3c-.77.17-.88-.24-1.11-.85-.3-.79-.67-.79-1.4-1.13a3.94 3.94 0 00-1.79-.55 2.35 2.35 0 01-1.72-.69c-.7-.59-1.09-.76-1.9-.44a23 23 0 00-2.65 1.38l.85-.31c-1.34.29-2-1.36-2.18-2.39-.14-.73-.58-.78-1.09-1.22a6.18 6.18 0 01-.92-1.42c-.63-1-1.94-1.1-2.56-2.11s-.79-2.25-2-2.87a2.87 2.87 0 00-.85.3 10.2 10.2 0 01-2.1 2.41c-.89.89-1.69 1.84-2.64 2.66A19.09 19.09 0 0083.37 20c-.56.75-1 1.91-1.93 2.26l.72-.26c-.74.07-1.35-.35-2.08-.34a5.41 5.41 0 00-1.83.4 2.93 2.93 0 00-1.2.68c-.34.38-.43.85-.92 1.08l.83-.3a4.12 4.12 0 01-2.83-.18 7.06 7.06 0 00-2.63-1.05 6.3 6.3 0 00-2.52.76c-.89.43-1.66 1.05-2.51 1.54s-1.83.87-2.74 1.29a5 5 0 00-2.19 1.44c-.57.83-.66 1.8-1.71 2.19l.72-.26c-2.86.76-4.48-2.46-6.17-4.15a19.78 19.78 0 01-2.83-4.23c-.52-.86-.76-1.29-1.77-1.22-3 .19-5.46-.51-7.22-3-1.08-1.52-1.55-4.48-4-3.67a3.55 3.55 0 00-.71.26c-.45.3-.44.78-.67 1.22-.52 1-1.78.48-2.43-.13-1.41-1.34-1.78-3.71-2-5.55-.49-3.31-2.29-9.19-6.75-7.69a3.91 3.91 0 00-2.2 1.56c-.46.63-.79 1.37-1.3 2A15.43 15.43 0 0120 6.47c-1.66 1.3-2.4 3.12-4.47 3.89-.36.14-.72.25-1.07.41-.94.41-1.41 1.32-2.32 1.71l.83-.3c-2.68.7-5.71-.3-8.42-.37A8 8 0 000 13c.24-.16.6-.15.85-.31 1.33-.86 3.24-.58 4.74-.42s2.87.32 4.33.37a6.87 6.87 0 002.67-.28c.91-.33 1.3-1 2.08-1.53a19 19 0 012.46-1c1.34-.63 2-1.94 3-3s2.58-1.6 3.45-2.83c.76-1 1.25-2.33 2.46-2.94l-.79.28c4.9-1.68 6.18 5.45 6.76 8.71.3 1.73.88 4.65 2.87 5.23A3.37 3.37 0 0037 15a2 2 0 00.85-.48c.49-.55.26-1.27 1.06-1.58l-.83.29c2-.32 2.34 1.73 3.15 3.08a6.92 6.92 0 003.92 3.37 10.45 10.45 0 003.1.37c.51 0 1.18-.23 1.64.06.63.39 1 1.46 1.36 2.08a11.63 11.63 0 001.89 2.89c1.3 1.34 2.39 3.1 4 4.11a3.6 3.6 0 003.62.06A2.53 2.53 0 0062 27.82a4 4 0 012.25-2.06c1-.48 2.1-.87 3.07-1.44s2.11-1.7 3.34-1.69 2.21 1.07 3.41 1.31a4.53 4.53 0 002.28-.16 2.34 2.34 0 001-.52c.52-.53.6-1 1.36-1.34l-.79.29a3.59 3.59 0 012.17-.08 2.56 2.56 0 001.42.13 3.86 3.86 0 002.33-2c1.12-1.74 2.91-2.85 4.36-4.3.66-.66 1.28-1.38 2-2.05a8.45 8.45 0 001.75-2.07l-.85.3C92.72 13 92.67 15 94.18 16A4.12 4.12 0 0196 17.67a2.88 2.88 0 00.75 1c.34.27.69.34.88.78s.1.84.27 1.26a3.31 3.31 0 00.89 1.2 1.22 1.22 0 001.26.21 11.43 11.43 0 003-1.49l-.85.3c.8-.2 1.25.53 1.84.95s1.19.22 2 .38a7.42 7.42 0 012 .88c.61.4.35 1.32 1 1.62.4.17 1.07-.12 1.45-.3.74-.34 1.35-.88 2.1-1.23a7.37 7.37 0 001.34-.88l-.83.3c1.27-.37 1.93 1.94 2.61 2.52a7.89 7.89 0 003.81 1.61 18.33 18.33 0 012.26.9c.66.22 1.38.22 2.06.4 1.46.38 2 1.23 3 2.2 1.41 1.33 2.61.08 3.93-.69a2.5 2.5 0 001.23-1.26 9.62 9.62 0 01.78-1.77 10.16 10.16 0 001.06-1.76 2.63 2.63 0 011.24-1.53l-.84.31a9.33 9.33 0 001.81-.42c.86-.37 1.46-1.15 2.31-1.59 1.3-.65 2.15-1.85 3.41-2.57s1.81-1.81 3-2.4l-.84.3c.68-.19.62.51 1.22.61a2.9 2.9 0 001.45-.23 2.52 2.52 0 001-.5 12.76 12.76 0 012.29-1.71l-.79.28c.72-.24 1.49-.26 2.22-.53a5.92 5.92 0 002.42-1.65c.94-1.07 1.13-2.47 1.81-3.69a13.11 13.11 0 012.72-3.18l-.85.31c1.81 1.72 4.15-.51 5.33-1.91.74-.87 1.45-1.76 2.18-2.64A12.55 12.55 0 01166.65 0l-.83.3c.54-.18 1.5 1.19 1.7 1.56a12.06 12.06 0 01.75 2 4.14 4.14 0 003 3 7.33 7.33 0 012 .58 6.7 6.7 0 011.35 1.41c1.05 1.16 3.16 1.69 3 3.5a3.09 3.09 0 00.4 2.14 23.52 23.52 0 011.48 2.07 11.82 11.82 0 001.53 2.26c.48.58 1 1.47 1.75 1.73 1.69.58 3.77-1.57 5.08-2.17l-.43.16c1.34-.48 2.75-.73 4.08-1.26 1.71-.68 3.28-2.08 5.19-2 .28 0 .58-.31.85-.3z"/></g></g></svg>