<svg xmlns="http://www.w3.org/2000/svg" viewBox="0 0 54.89 35.65"><defs><style>.cls-1{fill:#acd6c1}</style></defs><g id="Слой_2" data-name="Слой 2"><g id="Layer_1" data-name="Layer 1"><path class="cls-1" d="M26.33 11.71a13.9 13.9 0 012.59-.71c.54-.12 1.11-.24 1.64-.4a9.52 9.52 0 002.83-1.42 20.68 20.68 0 00-1.25-2.82l-.45.6-.57.74a11.17 11.17 0 01-2.86 2.73 5.67 5.67 0 01-2.9.85 4.58 4.58 0 01-1.17-.15 3.66 3.66 0 01-1.57-.9 5.51 5.51 0 00-.18 1.16v.21a5.25 5.25 0 00.84 2.83 6.72 6.72 0 013.05-2.72zm1.01-9.77a3.3 3.3 0 001.48-1c-.4-.57-.65-.91-.65-.91s-.55.74-1.31 1.87a.14.14 0 00.05.11.62.62 0 00.43-.07z"/><path class="cls-1" d="M24.39 10.48a4.55 4.55 0 003.5-.62 10.33 10.33 0 002.68-2.58l.57-.73.66-.86c-.43-.8-.9-1.58-1.34-2.29a8.75 8.75 0 01-3 4.37 5.46 5.46 0 01-2.16 1 3.91 3.91 0 01-.46 0 1.54 1.54 0 01-.9-.26 1.44 1.44 0 01-.51-.64c-.22.52-.42 1-.58 1.5a2.85 2.85 0 001.54 1.11z"/><path class="cls-1" d="M24.33 8.05a1.09 1.09 0 00.83.1A4.6 4.6 0 0027 7.26a8.55 8.55 0 003-4.6l-.2-.3a6.73 6.73 0 01-.8 1.28 4.7 4.7 0 01-1.79 1.43 3.33 3.33 0 01-1.22.25 2.78 2.78 0 01-1.08-.22c-.3.53-.6 1.08-.88 1.63a.36.36 0 010 .1 1.26 1.26 0 00.3 1.22z"/><path class="cls-1" d="M26.88 4.48a4 4 0 001.53-1.23 6.65 6.65 0 00.95-1.55l-.15-.22a3.92 3.92 0 01-1.64 1.06 1.65 1.65 0 01-.55.1.88.88 0 01-.49-.13h-.06c-.41.62-.85 1.32-1.28 2.06a2.21 2.21 0 001.69-.09zm4.24 10.25a4.86 4.86 0 00-2.55 1.73 2.5 2.5 0 00-.31.53A5.8 5.8 0 0033 14.55a5.14 5.14 0 00-1.88.18z"/><path class="cls-1" d="M30.43 13.18a9.62 9.62 0 00-3.29 1.36 4 4 0 00-1.35 2 6.33 6.33 0 001.76.46 2.83 2.83 0 01.46-.87 5.61 5.61 0 012.91-2 5.9 5.9 0 012.4-.17 5.18 5.18 0 00.57-2.22A8.51 8.51 0 0131.12 13z"/><path class="cls-1" d="M29.07 11.6a12.73 12.73 0 00-2.46.7 6 6 0 00-2.89 2.7 6.12 6.12 0 001.46 1.21A4.65 4.65 0 0126.71 14a10.2 10.2 0 013.53-1.48l.68-.19a7.12 7.12 0 002.93-1.47 5.9 5.9 0 00-.15-.73c0-.12-.06-.24-.1-.36a10.3 10.3 0 01-2.83 1.37c-.56.21-1.14.34-1.7.46z"/><path d="M13 33.49a7.24 7.24 0 01-5.18 2.07 7.5 7.5 0 01-5.5-2.27 7.79 7.79 0 010-11A7.47 7.47 0 017.78 20 7.54 7.54 0 0113 22l-.65.59a6.71 6.71 0 00-4.59-1.74 6.65 6.65 0 00-4.88 2 6.89 6.89 0 000 9.77 6.65 6.65 0 004.88 2 6.71 6.71 0 004.32-1.51v-4.56H13zm6.52-7.44h.85v1.7A6.86 6.86 0 0121 27a3.61 3.61 0 012.32-1.19v.93a2.63 2.63 0 00-1.67.91 4.14 4.14 0 00-1.27 2.89v4.82h-.85zm17.22 9.33h-.86v-1.9a6.32 6.32 0 01-.54.64A5.22 5.22 0 1128 26.74a5.21 5.21 0 017.38 0 5.3 5.3 0 01.54.63v-1.32h.86zm-.86-4.1v-1.69a4.1 4.1 0 00-1.18-2.21 4.31 4.31 0 100 6.09 4.08 4.08 0 001.18-2.19zm12.54-3.15v7.25h-.85v-9.33h.85v.6a3.76 3.76 0 012.72-1.16 3.59 3.59 0 013.75 3.65v6.24H54v-6.16a2.74 2.74 0 00-.86-2 2.92 2.92 0 00-4.08 0 3.27 3.27 0 00-.64.91z" fill="#8e8e8e"/><path class="cls-1" d="M42.58 26.05v9.33h-.85v-9.33zm.48-2.55a.69.69 0 000-.2 6.83 6.83 0 00-.88-1.71 6.83 6.83 0 00-.88 1.71.69.69 0 000 .2.91.91 0 001.82 0z"/></g></g></svg>