<svg xmlns="http://www.w3.org/2000/svg" viewBox="0 0 54.89 15.65"><g data-name="Слой 2"><g data-name="Layer 1"><path d="M13 13.49a7.24 7.24 0 01-5.18 2.07 7.5 7.5 0 01-5.5-2.27A7.5 7.5 0 010 7.78a7.49 7.49 0 012.28-5.5A7.47 7.47 0 017.78 0 7.54 7.54 0 0113 2l-.65.59A6.71 6.71 0 007.78.87a6.65 6.65 0 00-4.88 2 6.65 6.65 0 00-2 4.88 6.67 6.67 0 002 4.89 6.65 6.65 0 004.88 2 6.71 6.71 0 004.32-1.51V8.55h.9zm6.52-7.44h.85v1.7A6.86 6.86 0 0121 7a3.61 3.61 0 012.32-1.19v.93a2.63 2.63 0 00-1.67.91 4.14 4.14 0 00-1.27 2.89v4.82h-.85zm17.22 9.33h-.86v-1.9a5.38 5.38 0 01-.54.64 5.21 5.21 0 01-7.38 0 5 5 0 01-1.53-3.69A5 5 0 0128 6.74a5.21 5.21 0 017.38 0 5.3 5.3 0 01.54.63V6.05h.86zm-.86-4.1V9.59a4.32 4.32 0 00-8.55.84 4.31 4.31 0 007.37 3 4.08 4.08 0 001.18-2.15zm12.54-3.15v7.25h-.85V6.05h.85v.6a3.76 3.76 0 012.72-1.16 3.59 3.59 0 013.75 3.65v6.24H54V9.22a2.74 2.74 0 00-.86-2 2.92 2.92 0 00-4.08 0 3.27 3.27 0 00-.64.91z" fill="#8e8e8e"/><path d="M42.58 6.05v9.33h-.85V6.05zm.48-2.55a.69.69 0 000-.2 6.83 6.83 0 00-.88-1.71 6.83 6.83 0 00-.88 1.71.69.69 0 000 .2.91.91 0 101.82 0z" fill="#acd6c1"/></g></g></svg>