<svg xmlns="http://www.w3.org/2000/svg" viewBox="0 0 11.45 16.99"><defs><style>.cls-1{fill:#acd6c1}</style></defs><g id="Слой_2" data-name="Слой 2"><g id="Layer_1" data-name="Layer 1"><path class="cls-1" d="M3.89 11.71A13.9 13.9 0 016.48 11c.54-.12 1.11-.24 1.64-.4A9.46 9.46 0 0011 9.15a23.47 23.47 0 00-1.29-2.82l-.46.6-.57.74a11.17 11.17 0 01-2.86 2.73 5.67 5.67 0 01-2.9.85 4.45 4.45 0 01-1.16-.15 3.6 3.6 0 01-1.57-.9A4.46 4.46 0 000 11.36a1.48 1.48 0 000 .21 5.25 5.25 0 00.84 2.83 6.72 6.72 0 013.05-2.69zM4.9 1.94a3.3 3.3 0 001.48-1C6 .34 5.73 0 5.73 0s-.55.74-1.31 1.87a.14.14 0 000 .11.62.62 0 00.48-.04z"/><path class="cls-1" d="M2 10.48a4.55 4.55 0 003.5-.62 10.53 10.53 0 002.64-2.58l.56-.73.66-.86C8.93 4.89 8.47 4.11 8 3.4a8.75 8.75 0 01-3 4.37 5.46 5.46 0 01-2.16 1 3.73 3.73 0 01-.46 0 1.56 1.56 0 01-.9-.26A1.44 1.44 0 011 7.93C.76 8.45.56 9 .4 9.43A2.88 2.88 0 002 10.48z"/><path class="cls-1" d="M1.89 8.05a1.09 1.09 0 00.83.1 4.55 4.55 0 001.88-.89 8.49 8.49 0 003-4.6c-.06-.1-.13-.2-.2-.3a6.73 6.73 0 01-.84 1.28 4.7 4.7 0 01-1.84 1.43 3.29 3.29 0 01-1.22.25 2.78 2.78 0 01-1.08-.22c-.3.53-.6 1.08-.87 1.63v.1a1.26 1.26 0 00.34 1.22z"/><path class="cls-1" d="M4.45 4.48A4.13 4.13 0 006 3.25a7 7 0 00.92-1.55l-.15-.22a3.86 3.86 0 01-1.64 1.06 1.65 1.65 0 01-.55.1.88.88 0 01-.49-.13L4 2.47c-.4.62-.85 1.32-1.28 2.06a2.24 2.24 0 001.73-.05zm4.23 10.25a4.9 4.9 0 00-2.55 1.73 2.5 2.5 0 00-.31.53 5.8 5.8 0 004.69-2.44 5.14 5.14 0 00-1.83.18z"/><path class="cls-1" d="M8 13.18a9.62 9.62 0 00-3.3 1.36 4 4 0 00-1.35 2 6.43 6.43 0 001.76.46 3.07 3.07 0 01.46-.87 5.61 5.61 0 012.91-2 5.9 5.9 0 012.4-.17 5.18 5.18 0 00.57-2.22A8.56 8.56 0 018.69 13z"/><path class="cls-1" d="M6.63 11.6a12.73 12.73 0 00-2.46.7A6 6 0 001.28 15a6.12 6.12 0 001.46 1.2A4.72 4.72 0 014.27 14a10.2 10.2 0 013.53-1.44l.69-.19a7.15 7.15 0 002.92-1.47 4.5 4.5 0 00-.15-.73l-.09-.36a10.5 10.5 0 01-2.84 1.37c-.56.17-1.14.3-1.7.42z"/></g></g></svg>