<svg xmlns="http://www.w3.org/2000/svg" viewBox="0 0 54.89 35.65"><defs><style>.cls-1{fill:#acd6c1;}.cls-2{fill:#8e8e8e;}</style></defs><title>Ресурс 2</title><g id="Слой_2" data-name="Слой 2"><g id="Layer_1" data-name="Layer 1"><path class="cls-1" d="M26.33,11.71A13.9,13.9,0,0,1,28.92,11c.54-.12,1.11-.24,1.64-.4a9.52,9.52,0,0,0,2.83-1.42,20.68,20.68,0,0,0-1.25-2.82l-.45.6-.57.74a11.17,11.17,0,0,1-2.86,2.73,5.67,5.67,0,0,1-2.9.85,4.58,4.58,0,0,1-1.17-.15,3.66,3.66,0,0,1-1.57-.9,5.51,5.51,0,0,0-.18,1.16v.21a5.25,5.25,0,0,0,.84,2.83A6.72,6.72,0,0,1,26.33,11.71Z"/><path class="cls-1" d="M27.34,1.94a3.3,3.3,0,0,0,1.48-1c-.4-.57-.65-.91-.65-.91s-.55.74-1.31,1.87a.14.14,0,0,0,.05.11A.62.62,0,0,0,27.34,1.94Z"/><path class="cls-1" d="M24.39,10.48a4.55,4.55,0,0,0,3.5-.62,10.33,10.33,0,0,0,2.68-2.58l.57-.73.66-.86c-.43-.8-.9-1.58-1.34-2.29a8.75,8.75,0,0,1-3,4.37,5.46,5.46,0,0,1-2.16,1,3.91,3.91,0,0,1-.46,0,1.54,1.54,0,0,1-.9-.26,1.44,1.44,0,0,1-.51-.64c-.22.52-.42,1-.58,1.5A2.85,2.85,0,0,0,24.39,10.48Z"/><path class="cls-1" d="M24.33,8.05a1.09,1.09,0,0,0,.83.1A4.6,4.6,0,0,0,27,7.26,8.55,8.55,0,0,0,30,2.66l-.2-.3A6.73,6.73,0,0,1,29,3.64a4.7,4.7,0,0,1-1.79,1.43,3.33,3.33,0,0,1-1.22.25,2.78,2.78,0,0,1-1.08-.22c-.3.53-.6,1.08-.88,1.63a.36.36,0,0,1,0,.1A1.26,1.26,0,0,0,24.33,8.05Z"/><path class="cls-1" d="M26.88,4.48a4,4,0,0,0,1.53-1.23,6.65,6.65,0,0,0,.95-1.55l-.15-.22a3.92,3.92,0,0,1-1.64,1.06,1.65,1.65,0,0,1-.55.1.88.88,0,0,1-.49-.13l-.06,0c-.41.62-.85,1.32-1.28,2.06A2.21,2.21,0,0,0,26.88,4.48Z"/><path class="cls-1" d="M31.12,14.73a4.86,4.86,0,0,0-2.55,1.73,2.5,2.5,0,0,0-.31.53A5.8,5.8,0,0,0,33,14.55,5.14,5.14,0,0,0,31.12,14.73Z"/><path class="cls-1" d="M30.43,13.18a9.62,9.62,0,0,0-3.29,1.36,4,4,0,0,0-1.35,2,6.33,6.33,0,0,0,1.76.46,2.83,2.83,0,0,1,.46-.87,5.61,5.61,0,0,1,2.91-2,5.9,5.9,0,0,1,2.4-.17,5.18,5.18,0,0,0,.57-2.22A8.51,8.51,0,0,1,31.12,13Z"/><path class="cls-1" d="M29.07,11.6a12.73,12.73,0,0,0-2.46.7A6,6,0,0,0,23.72,15a6.12,6.12,0,0,0,1.46,1.21A4.65,4.65,0,0,1,26.71,14a10.2,10.2,0,0,1,3.53-1.48l.68-.19a7.12,7.12,0,0,0,2.93-1.47,5.9,5.9,0,0,0-.15-.73c0-.12-.06-.24-.1-.36a10.3,10.3,0,0,1-2.83,1.37C30.21,11.35,29.63,11.48,29.07,11.6Z"/><path class="cls-2" d="M13,33.49a7.24,7.24,0,0,1-5.18,2.07,7.5,7.5,0,0,1-5.5-2.27,7.79,7.79,0,0,1,0-11A7.47,7.47,0,0,1,7.78,20,7.54,7.54,0,0,1,13,22l-.65.59a6.71,6.71,0,0,0-4.59-1.74,6.65,6.65,0,0,0-4.88,2,6.89,6.89,0,0,0,0,9.77,6.65,6.65,0,0,0,4.88,2,6.71,6.71,0,0,0,4.32-1.51V28.55H13Z"/><path class="cls-2" d="M19.52,26.05h.85v1.7A6.86,6.86,0,0,1,21,27a3.61,3.61,0,0,1,2.32-1.19v.93a2.63,2.63,0,0,0-1.67.91,4.14,4.14,0,0,0-1.27,2.89v4.82h-.85Z"/><path class="cls-2" d="M36.74,35.38h-.86v-1.9a6.32,6.32,0,0,1-.54.64A5.22,5.22,0,1,1,28,26.74a5.21,5.21,0,0,1,7.38,0,5.3,5.3,0,0,1,.54.63V26.05h.86Zm-.86-4.1V29.59a4.1,4.1,0,0,0-1.18-2.21,4.31,4.31,0,1,0,0,6.09A4.08,4.08,0,0,0,35.88,31.28Z"/><path class="cls-2" d="M48.42,28.13v7.25h-.85V26.05h.85v.6a3.76,3.76,0,0,1,2.72-1.16,3.59,3.59,0,0,1,3.75,3.65v6.24H54V29.22a2.74,2.74,0,0,0-.86-2,2.92,2.92,0,0,0-4.08,0A3.27,3.27,0,0,0,48.42,28.13Z"/><path class="cls-1" d="M42.58,26.05v9.33h-.85V26.05Z"/><path class="cls-1" d="M43.06,23.5a.69.69,0,0,0,0-.2,6.83,6.83,0,0,0-.88-1.71,6.83,6.83,0,0,0-.88,1.71.69.69,0,0,0,0,.2v0a.91.91,0,0,0,1.82,0Z"/></g></g></svg>