<svg xmlns="http://www.w3.org/2000/svg" viewBox="0 0 54.89 15.65"><defs><style>.cls-1{fill:#8e8e8e;}.cls-2{fill:#acd6c1;}</style></defs><title>Ресурс 4</title><g id="Слой_2" data-name="Слой 2"><g id="Layer_1" data-name="Layer 1"><path class="cls-1" d="M13,13.49a7.24,7.24,0,0,1-5.18,2.07,7.5,7.5,0,0,1-5.5-2.27A7.5,7.5,0,0,1,0,7.78a7.49,7.49,0,0,1,2.28-5.5A7.47,7.47,0,0,1,7.78,0,7.54,7.54,0,0,1,13,2l-.65.59A6.71,6.71,0,0,0,7.78.87a6.65,6.65,0,0,0-4.88,2,6.65,6.65,0,0,0-2,4.88,6.67,6.67,0,0,0,2,4.89,6.65,6.65,0,0,0,4.88,2,6.71,6.71,0,0,0,4.32-1.51V8.55H13Z"/><path class="cls-1" d="M19.52,6.05h.85v1.7A6.86,6.86,0,0,1,21,7a3.61,3.61,0,0,1,2.32-1.19v.93a2.63,2.63,0,0,0-1.67.91,4.14,4.14,0,0,0-1.27,2.89v4.82h-.85Z"/><path class="cls-1" d="M36.74,15.38h-.86v-1.9a5.38,5.38,0,0,1-.54.64,5.21,5.21,0,0,1-7.38,0,5,5,0,0,1-1.53-3.69A5,5,0,0,1,28,6.74a5.21,5.21,0,0,1,7.38,0,5.3,5.3,0,0,1,.54.63V6.05h.86Zm-.86-4.1V9.59a4.32,4.32,0,0,0-8.55.84,4.31,4.31,0,0,0,7.37,3A4.08,4.08,0,0,0,35.88,11.28Z"/><path class="cls-1" d="M48.42,8.13v7.25h-.85V6.05h.85v.6a3.76,3.76,0,0,1,2.72-1.16,3.59,3.59,0,0,1,3.75,3.65v6.24H54V9.22a2.74,2.74,0,0,0-.86-2,2.92,2.92,0,0,0-4.08,0A3.27,3.27,0,0,0,48.42,8.13Z"/><path class="cls-2" d="M42.58,6.05v9.33h-.85V6.05Z"/><path class="cls-2" d="M43.06,3.5a.69.69,0,0,0,0-.2,6.83,6.83,0,0,0-.88-1.71,6.83,6.83,0,0,0-.88,1.71.69.69,0,0,0,0,.2v0a.91.91,0,1,0,1.82,0Z"/></g></g></svg>