<svg xmlns="http://www.w3.org/2000/svg" viewBox="0 0 11.45 16.99"><defs><style>.cls-1{fill:#acd6c1;}</style></defs><title>Ресурс 3</title><g id="Слой_2" data-name="Слой 2"><g id="Layer_1" data-name="Layer 1"><path class="cls-1" d="M3.89,11.71A13.9,13.9,0,0,1,6.48,11c.54-.12,1.11-.24,1.64-.4A9.46,9.46,0,0,0,11,9.15,23.47,23.47,0,0,0,9.71,6.33l-.46.6-.57.74A11.17,11.17,0,0,1,5.82,10.4a5.67,5.67,0,0,1-2.9.85,4.45,4.45,0,0,1-1.16-.15,3.6,3.6,0,0,1-1.57-.9A4.46,4.46,0,0,0,0,11.36a1.48,1.48,0,0,0,0,.21A5.25,5.25,0,0,0,.84,14.4,6.72,6.72,0,0,1,3.89,11.71Z"/><path class="cls-1" d="M4.9,1.94a3.3,3.3,0,0,0,1.48-1C6,.34,5.73,0,5.73,0S5.18.74,4.42,1.87a.14.14,0,0,0,0,.11A.62.62,0,0,0,4.9,1.94Z"/><path class="cls-1" d="M2,10.48a4.55,4.55,0,0,0,3.5-.62A10.53,10.53,0,0,0,8.14,7.28l.56-.73.66-.86C8.93,4.89,8.47,4.11,8,3.4A8.75,8.75,0,0,1,5,7.77a5.46,5.46,0,0,1-2.16,1,3.73,3.73,0,0,1-.46,0,1.56,1.56,0,0,1-.9-.26A1.44,1.44,0,0,1,1,7.93C.76,8.45.56,9,.4,9.43A2.88,2.88,0,0,0,2,10.48Z"/><path class="cls-1" d="M1.89,8.05a1.09,1.09,0,0,0,.83.1A4.55,4.55,0,0,0,4.6,7.26a8.49,8.49,0,0,0,3-4.6c-.06-.1-.13-.2-.2-.3a6.73,6.73,0,0,1-.84,1.28A4.7,4.7,0,0,1,4.72,5.07a3.29,3.29,0,0,1-1.22.25A2.78,2.78,0,0,1,2.42,5.1c-.3.53-.6,1.08-.87,1.63l0,.1A1.26,1.26,0,0,0,1.89,8.05Z"/><path class="cls-1" d="M4.45,4.48A4.13,4.13,0,0,0,6,3.25,7,7,0,0,0,6.92,1.7l-.15-.22A3.86,3.86,0,0,1,5.13,2.54a1.65,1.65,0,0,1-.55.1.88.88,0,0,1-.49-.13L4,2.47c-.4.62-.85,1.32-1.28,2.06A2.24,2.24,0,0,0,4.45,4.48Z"/><path class="cls-1" d="M8.68,14.73a4.9,4.9,0,0,0-2.55,1.73,2.5,2.5,0,0,0-.31.53,5.8,5.8,0,0,0,4.69-2.44A5.14,5.14,0,0,0,8.68,14.73Z"/><path class="cls-1" d="M8,13.18A9.62,9.62,0,0,0,4.7,14.54a4,4,0,0,0-1.35,2A6.43,6.43,0,0,0,5.11,17a3.07,3.07,0,0,1,.46-.87,5.61,5.61,0,0,1,2.91-2,5.9,5.9,0,0,1,2.4-.17,5.18,5.18,0,0,0,.57-2.22A8.56,8.56,0,0,1,8.69,13Z"/><path class="cls-1" d="M6.63,11.6a12.73,12.73,0,0,0-2.46.7A6,6,0,0,0,1.28,15,6.12,6.12,0,0,0,2.74,16.2,4.72,4.72,0,0,1,4.27,14,10.2,10.2,0,0,1,7.8,12.56l.69-.19a7.15,7.15,0,0,0,2.92-1.47,4.5,4.5,0,0,0-.15-.73l-.09-.36a10.5,10.5,0,0,1-2.84,1.37C7.77,11.35,7.19,11.48,6.63,11.6Z"/></g></g></svg>